<svg width="32" height="32" viewBox="0 0 32 32" fill="none" xmlns="http://www.w3.org/2000/svg">
<path d="M25.9882 19.8335C26.0775 19.3488 26.0775 18.8538 25.9882 18.369L26.8751 17.8568C26.9783 17.7983 27.0229 17.678 26.9886 17.5646C26.7582 16.822 26.3629 16.1482 25.8472 15.5912C25.7681 15.5053 25.6409 15.4846 25.5378 15.5431L24.6508 16.0553C24.2761 15.7356 23.8464 15.4881 23.3823 15.3231V14.2986C23.3823 14.1817 23.2997 14.0786 23.1863 14.0545C22.4196 13.8826 21.6393 13.8895 20.9104 14.0545C20.797 14.0786 20.7145 14.1817 20.7145 14.2986V15.3231C20.2504 15.4881 19.8206 15.7356 19.4459 16.0553L18.5589 15.5431C18.4592 15.4846 18.3286 15.5053 18.2495 15.5912C17.7338 16.1482 17.3385 16.822 17.1082 17.5646C17.0738 17.678 17.1219 17.7983 17.2216 17.8568L18.1086 18.369C18.0192 18.8538 18.0192 19.3488 18.1086 19.8335L17.2216 20.3458C17.1185 20.4042 17.0738 20.5246 17.1082 20.638C17.3385 21.3806 17.7338 22.051 18.2495 22.6113C18.3286 22.6973 18.4558 22.7179 18.5589 22.6595L19.4459 22.1472C19.8206 22.4669 20.2504 22.7145 20.7145 22.8795V23.904C20.7145 24.0209 20.797 24.124 20.9104 24.1481C21.6771 24.32 22.4575 24.3131 23.1863 24.1481C23.2997 24.124 23.3823 24.0209 23.3823 23.904V22.8795C23.8464 22.7145 24.2761 22.4669 24.6508 22.1472L25.5378 22.6595C25.6375 22.7179 25.7681 22.6973 25.8472 22.6113C26.3629 22.0544 26.7582 21.3806 26.9886 20.638C27.0229 20.5246 26.9748 20.4042 26.8751 20.3458L25.9882 19.8335ZM22.0518 20.7686C21.1305 20.7686 20.3844 20.0192 20.3844 19.1013C20.3844 18.1834 21.1339 17.4339 22.0518 17.4339C22.9697 17.4339 23.7192 18.1834 23.7192 19.1013C23.7192 20.0192 22.9731 20.7686 22.0518 20.7686ZM12.7008 15.8009C15.1314 15.8009 17.1013 13.831 17.1013 11.4005C17.1013 8.9699 15.1314 7 12.7008 7C10.2702 7 8.30035 8.9699 8.30035 11.4005C8.30035 13.831 10.2702 15.8009 12.7008 15.8009ZM19.6178 23.5877C19.5387 23.5464 19.4597 23.4983 19.384 23.4536L19.1124 23.6118C18.9062 23.7286 18.6724 23.794 18.4386 23.794C18.0639 23.794 17.7029 23.6358 17.4451 23.3608C16.8159 22.6801 16.3346 21.8516 16.063 20.968C15.874 20.3595 16.1284 19.7167 16.6784 19.3969L16.95 19.2388C16.9466 19.1494 16.9466 19.06 16.95 18.9706L16.6784 18.8125C16.1284 18.4962 15.874 17.8499 16.063 17.2414C16.094 17.1417 16.1387 17.042 16.1731 16.9423C16.0424 16.932 15.9152 16.901 15.7811 16.901H15.207C14.4438 17.2517 13.5947 17.4511 12.7008 17.4511C11.807 17.4511 10.9613 17.2517 10.1946 16.901H9.62049C7.06959 16.901 5 18.9706 5 21.5215V22.9517C5 23.8627 5.73914 24.6019 6.65017 24.6019H18.7515C19.0987 24.6019 19.4218 24.4918 19.6865 24.3096C19.6453 24.179 19.6178 24.0449 19.6178 23.904V23.5877Z" fill="black"/>
</svg>
