<svg width="14" height="9" viewBox="0 0 14 9" fill="none" xmlns="http://www.w3.org/2000/svg">
<path d="M0.0775886 4.61996C0.0775886 3.35996 0.354789 2.39156 0.909189 1.71476C1.46359 1.03076 2.25559 0.688763 3.28519 0.688763C3.82519 0.688763 4.29679 0.782363 4.69999 0.969564C5.10319 1.15676 5.43799 1.42316 5.70439 1.76876C5.97079 2.11436 6.16879 2.52836 6.29839 3.01076C6.42799 3.49316 6.49279 4.02956 6.49279 4.61996C6.49279 5.87996 6.21199 6.85196 5.65039 7.53596C5.09599 8.21276 4.30759 8.55116 3.28519 8.55116C2.73799 8.55116 2.26279 8.45756 1.85959 8.27036C1.45639 8.08316 1.12159 7.81676 0.855189 7.47116C0.595989 7.12556 0.401589 6.71156 0.271989 6.22916C0.142389 5.74676 0.0775886 5.21036 0.0775886 4.61996ZM1.63279 4.61996C1.63279 5.00156 1.66519 5.35436 1.72999 5.67836C1.79479 5.99516 1.89199 6.26876 2.02159 6.49916C2.15839 6.72956 2.33119 6.90956 2.53999 7.03916C2.74879 7.16876 2.99719 7.23356 3.28519 7.23356C3.81079 7.23356 4.21759 7.02836 4.50559 6.61796C4.79359 6.20756 4.93759 5.54156 4.93759 4.61996C4.93759 4.25276 4.90519 3.91076 4.84039 3.59396C4.78279 3.27716 4.68919 2.99996 4.55959 2.76236C4.42999 2.52476 4.26079 2.34116 4.05199 2.21156C3.84319 2.07476 3.58759 2.00636 3.28519 2.00636C2.75959 2.00636 2.35279 2.21876 2.06479 2.64356C1.77679 3.06116 1.63279 3.71996 1.63279 4.61996ZM9.42954 4.45796L8.83554 3.26996H8.78154L8.95434 4.45796V8.39996H7.55034V0.785963H8.63034L11.4923 4.81436L12.0647 5.96996H12.1187L11.9459 4.81436V0.839963H13.3499V8.45396H12.2699L9.42954 4.45796Z" fill="white"/>
</svg>
