<svg width="32" height="32" viewBox="0 0 32 32" fill="none" xmlns="http://www.w3.org/2000/svg">
<path d="M19.2555 12.3629C18.7274 9.2122 17.4818 7 16.0323 7C14.5827 7 13.3371 9.2122 12.8091 12.3629H19.2555ZM12.5359 15.75C12.5359 16.5333 12.5796 17.2848 12.6561 18.0081H19.4048C19.4813 17.2848 19.525 16.5333 19.525 15.75C19.525 14.9667 19.4813 14.2152 19.4048 13.4919H12.6561C12.5796 14.2152 12.5359 14.9667 12.5359 15.75ZM24.3616 12.3629C23.32 9.96724 21.2112 8.11492 18.6072 7.36694C19.4958 8.55948 20.1077 10.3553 20.4282 12.3629H24.3616ZM13.4537 7.36694C10.8533 8.11492 8.74089 9.96724 7.70291 12.3629H11.6363C11.9532 10.3553 12.565 8.55948 13.4537 7.36694ZM24.7513 13.4919H20.5739C20.6504 14.2329 20.6941 14.9914 20.6941 15.75C20.6941 16.5086 20.6504 17.2671 20.5739 18.0081H24.7477C24.948 17.2848 25.0609 16.5333 25.0609 15.75C25.0609 14.9667 24.948 14.2152 24.7513 13.4919ZM11.3704 15.75C11.3704 14.9914 11.4142 14.2329 11.4906 13.4919H7.31322C7.11655 14.2152 7 14.9667 7 15.75C7 16.5333 7.11655 17.2848 7.31322 18.0081H11.487C11.4142 17.2671 11.3704 16.5086 11.3704 15.75ZM12.8091 19.1371C13.3371 22.2878 14.5827 24.5 16.0323 24.5C17.4818 24.5 18.7274 22.2878 19.2555 19.1371H12.8091ZM18.6108 24.1331C21.2112 23.3851 23.3236 21.5328 24.3652 19.1371H20.4318C20.1113 21.1447 19.4995 22.9405 18.6108 24.1331ZM7.70291 19.1371C8.74454 21.5328 10.8533 23.3851 13.4573 24.1331C12.5687 22.9405 11.9568 21.1447 11.6363 19.1371H7.70291Z" fill="black"/>
</svg>
