<?xml version="1.0" encoding="UTF-8"?>
<svg id="Layer_1" data-name="Layer 1" xmlns="http://www.w3.org/2000/svg" viewBox="0 0 134.57 134.57">
  <defs>
    <style>
      .cls-1 {
        fill: #4f45e4;
        fill-rule: evenodd;
      }
    </style>
  </defs>
  <path class="cls-1" d="M20.06,110.23c-2.6-1.05-4.33-2.41-6.04-4.74-1.02-1.49-1.6-2.76-2.09-4.53-.51-2.01-.57-4.08-.43-6.15-.77-.25-1.64-.91-2.32-2.02-.16,2.39-.08,6.52,.5,8.84,.58,2.07,1.27,3.58,2.46,5.33,2.02,2.75,4.06,4.36,7.13,5.6,.48,.18,.94,.32,1.43,.45,1.8,.45,3.24,.53,5.09,.32,1.88-.27,3.26-.77,4.93-1.74,1.77-1.11,2.93-2.25,4.19-3.97,2.65-3.84,3.86-8.82,4.05-13.52,11.28-2.59,26.57-8.47,28.12-20.31-.88,1.67-2.94,13.88-28.1,19.04-.1-5.78-1.8-10.78-6.87-13.59-3.25-1.58-6.12-1.71-9.63-1.38-3.82,.5-7.09,1.41-10.16,3.97-1.1,1-1.84,1.91-2.42,3.32-.48,1.3-.58,2.35-.27,3.72,.4,1.44,1.06,2.35,2.11,3.34,1.37,1.18,2.68,1.81,4.34,2.4,5.22,1.61,10.26,1.42,15.62,.83,1.47-.2,3.21-.49,5.12-.88-.27,4.02-1.39,8.37-3.69,11.64-1.07,1.44-2.04,2.39-3.54,3.31-1.38,.8-2.53,1.19-4.08,1.41-1.55,.16-2.75,.08-4.25-.3-.41-.11-.8-.24-1.21-.39h0Zm16.83-16.99c-1.68,.3-3.45,.58-5.32,.81-5.11,.49-10.04,.64-15-1-1.44-.53-2.6-1.09-3.77-2.13-.77-.74-1.28-1.42-1.56-2.49-.21-.96-.12-1.67,.23-2.58,.48-1.1,1.1-1.83,1.97-2.6,2.78-2.25,5.82-3.02,9.25-3.44,3.11-.27,5.72-.16,8.57,1.28,4.37,2.49,5.62,6.93,5.64,11.9,0,.08,0,.16,0,.24Z"/>
  <path class="cls-1" d="M64.26,131.04c-2.58,1.1-4.77,1.36-7.62,.92-1.77-.34-3.08-.83-4.68-1.72-1.78-1.06-3.29-2.48-4.65-4.05-.72,.37-1.81,.52-3.07,.21,1.58,1.8,4.56,4.67,6.61,5.89,1.87,1.06,3.42,1.63,5.51,2.03,3.37,.52,5.96,.21,9-1.08,.46-.21,.89-.44,1.33-.69,1.59-.96,2.67-1.92,3.83-3.37,1.14-1.52,1.76-2.85,2.25-4.72,.46-2.04,.48-3.66,.15-5.77-.84-4.59-3.5-8.96-6.69-12.42,6.14-9.8,12.8-24.78,5.53-34.24,.56,1.8,7.74,11.89-6.4,33.33-4.15-4.01-8.9-6.35-14.47-4.75-3.41,1.18-5.53,3.11-7.79,5.84-2.35,3.06-4.02,6.01-4.38,10-.07,1.48,.05,2.65,.63,4.06,.58,1.26,1.25,2.07,2.44,2.82,1.3,.73,2.41,.92,3.85,.87,1.8-.13,3.17-.61,4.76-1.38,4.83-2.55,8.26-6.25,11.63-10.46,.9-1.19,1.92-2.62,3-4.24,2.65,3.04,4.93,6.9,5.62,10.83,.26,1.77,.24,3.13-.16,4.84-.42,1.54-.94,2.63-1.89,3.88-.98,1.21-1.89,2-3.22,2.79-.37,.21-.74,.4-1.13,.58h0Zm-.11-23.91c-.97,1.4-2.03,2.84-3.19,4.34-3.27,3.97-6.65,7.55-11.31,9.9-1.39,.64-2.61,1.07-4.17,1.16-1.07,.02-1.91-.1-2.87-.66-.82-.53-1.27-1.1-1.66-1.98-.44-1.12-.52-2.07-.45-3.23,.37-3.56,1.98-6.25,4.11-8.97,2.01-2.38,3.93-4.16,6.96-5.16,4.85-1.33,8.88,.93,12.4,4.42,.06,.06,.11,.12,.17,.18Z"/>
  <path class="cls-1" d="M110.23,114.51c-1.05,2.6-2.41,4.34-4.74,6.04-1.49,1.02-2.76,1.6-4.53,2.09-2.01,.51-4.08,.57-6.15,.43-.25,.77-.91,1.64-2.02,2.32,2.39,.16,6.52,.08,8.84-.5,2.07-.58,3.58-1.27,5.33-2.46,2.75-2.02,4.36-4.06,5.6-7.13,.18-.48,.32-.94,.45-1.43,.45-1.8,.53-3.24,.32-5.09-.27-1.88-.77-3.26-1.74-4.93-1.11-1.77-2.25-2.93-3.97-4.19-3.84-2.65-8.82-3.86-13.52-4.05-2.59-11.28-8.47-26.57-20.31-28.12,1.67,.88,13.88,2.94,19.04,28.1-5.78,.1-10.78,1.8-13.59,6.87-1.58,3.25-1.71,6.12-1.38,9.63,.5,3.82,1.41,7.09,3.97,10.16,1,1.1,1.91,1.84,3.32,2.42,1.3,.48,2.35,.58,3.72,.27,1.44-.4,2.35-1.06,3.34-2.11,1.18-1.37,1.81-2.68,2.4-4.34,1.61-5.22,1.42-10.26,.83-15.62-.2-1.47-.49-3.21-.88-5.12,4.02,.27,8.37,1.39,11.64,3.69,1.44,1.07,2.39,2.04,3.31,3.54,.8,1.38,1.19,2.53,1.41,4.08,.16,1.55,.08,2.75-.3,4.25-.11,.41-.24,.8-.39,1.21h0Zm-16.99-16.83c.3,1.68,.58,3.45,.81,5.32,.49,5.11,.64,10.04-1,15-.53,1.44-1.09,2.6-2.13,3.77-.74,.77-1.42,1.28-2.49,1.56-.96,.21-1.67,.12-2.58-.23-1.1-.48-1.83-1.1-2.6-1.97-2.25-2.78-3.02-5.82-3.44-9.25-.27-3.11-.16-5.72,1.28-8.57,2.48-4.37,6.93-5.62,11.9-5.64,.08,0,.16,0,.24,0Z"/>
  <path class="cls-1" d="M131.04,70.31c1.1,2.58,1.36,4.77,.92,7.62-.34,1.77-.82,3.08-1.72,4.68-1.06,1.78-2.48,3.29-4.05,4.65,.37,.72,.52,1.81,.21,3.07,1.8-1.58,4.67-4.56,5.89-6.61,1.06-1.87,1.63-3.42,2.03-5.51,.52-3.37,.21-5.96-1.08-9-.21-.46-.44-.89-.69-1.33-.96-1.59-1.92-2.67-3.37-3.83-1.52-1.14-2.85-1.76-4.72-2.25-2.04-.46-3.66-.48-5.77-.15-4.59,.84-8.96,3.5-12.42,6.69-9.8-6.14-24.78-12.8-34.24-5.53,1.8-.56,11.89-7.74,33.33,6.4-4.01,4.15-6.35,8.9-4.75,14.47,1.18,3.41,3.11,5.53,5.84,7.79,3.06,2.35,6.01,4.02,10,4.38,1.48,.07,2.65-.05,4.06-.63,1.26-.58,2.07-1.25,2.82-2.44,.73-1.3,.92-2.41,.87-3.85-.13-1.8-.61-3.17-1.38-4.76-2.55-4.83-6.25-8.26-10.46-11.63-1.19-.9-2.62-1.92-4.24-3,3.04-2.65,6.9-4.93,10.83-5.62,1.77-.26,3.13-.24,4.84,.16,1.54,.42,2.63,.94,3.88,1.89,1.21,.98,2,1.89,2.79,3.22,.21,.37,.4,.74,.58,1.13h0Zm-23.91,.11c1.4,.97,2.84,2.03,4.34,3.19,3.97,3.27,7.55,6.65,9.9,11.31,.64,1.39,1.07,2.61,1.16,4.17,.02,1.07-.1,1.91-.66,2.87-.53,.82-1.1,1.27-1.98,1.66-1.12,.44-2.07,.51-3.23,.45-3.56-.37-6.25-1.98-8.97-4.11-2.38-2.01-4.16-3.93-5.16-6.96-1.33-4.85,.93-8.88,4.42-12.4,.06-.06,.12-.11,.18-.17Z"/>
  <path class="cls-1" d="M114.51,24.34c2.6,1.05,4.33,2.41,6.04,4.74,1.02,1.49,1.6,2.76,2.09,4.53,.51,2.01,.57,4.08,.43,6.15,.77,.25,1.64,.91,2.32,2.02,.16-2.39,.08-6.52-.5-8.84-.58-2.07-1.27-3.58-2.46-5.33-2.02-2.75-4.06-4.36-7.13-5.6-.48-.18-.94-.32-1.43-.45-1.8-.45-3.24-.53-5.09-.32-1.88,.27-3.26,.77-4.93,1.75-1.77,1.11-2.93,2.25-4.19,3.97-2.65,3.84-3.86,8.82-4.05,13.52-11.28,2.59-26.57,8.47-28.12,20.31,.88-1.67,2.94-13.88,28.1-19.04,.1,5.78,1.8,10.78,6.87,13.59,3.25,1.58,6.12,1.71,9.63,1.38,3.82-.5,7.09-1.41,10.16-3.97,1.1-1,1.84-1.91,2.42-3.32,.48-1.3,.58-2.35,.27-3.72-.4-1.44-1.06-2.35-2.11-3.34-1.37-1.18-2.68-1.81-4.34-2.4-5.22-1.61-10.26-1.42-15.62-.83-1.47,.2-3.21,.49-5.12,.88,.27-4.02,1.39-8.37,3.69-11.64,1.07-1.44,2.04-2.39,3.54-3.31,1.38-.8,2.53-1.19,4.08-1.41,1.55-.16,2.75-.08,4.25,.3,.41,.11,.8,.24,1.21,.39h0Zm-16.83,16.99c1.68-.3,3.45-.58,5.32-.81,5.11-.49,10.04-.64,15,1,1.44,.53,2.6,1.09,3.77,2.13,.77,.74,1.28,1.42,1.56,2.49,.21,.96,.12,1.67-.23,2.58-.48,1.1-1.1,1.83-1.97,2.6-2.78,2.25-5.82,3.02-9.25,3.44-3.11,.27-5.72,.16-8.57-1.28-4.37-2.49-5.62-6.93-5.64-11.9,0-.08,0-.16,0-.24Z"/>
  <path class="cls-1" d="M70.31,3.53c2.58-1.1,4.77-1.36,7.62-.92,1.77,.34,3.08,.82,4.68,1.72,1.78,1.06,3.29,2.48,4.65,4.05,.72-.37,1.81-.52,3.07-.21-1.58-1.8-4.56-4.67-6.61-5.89-1.88-1.06-3.42-1.63-5.51-2.03-3.37-.52-5.96-.21-9,1.08-.46,.21-.89,.44-1.33,.69-1.59,.96-2.67,1.92-3.83,3.37-1.14,1.52-1.76,2.85-2.25,4.72-.46,2.04-.48,3.66-.15,5.77,.84,4.59,3.5,8.96,6.69,12.42-6.14,9.8-12.8,24.78-5.53,34.24-.56-1.8-7.74-11.89,6.4-33.33,4.15,4.01,8.9,6.35,14.47,4.75,3.41-1.18,5.53-3.11,7.79-5.84,2.35-3.06,4.02-6.01,4.38-10,.07-1.48-.05-2.65-.63-4.06-.58-1.26-1.25-2.07-2.44-2.82-1.3-.73-2.41-.92-3.85-.87-1.8,.13-3.17,.61-4.76,1.38-4.83,2.55-8.26,6.25-11.63,10.46-.9,1.19-1.92,2.62-3,4.24-2.65-3.04-4.93-6.9-5.62-10.83-.26-1.77-.24-3.13,.16-4.84,.42-1.54,.94-2.63,1.89-3.88,.98-1.21,1.89-2,3.22-2.79,.37-.21,.74-.4,1.13-.58h0Zm.11,23.91c.97-1.4,2.03-2.84,3.19-4.34,3.27-3.97,6.65-7.55,11.31-9.9,1.39-.64,2.61-1.07,4.17-1.16,1.07-.02,1.91,.1,2.87,.66,.82,.53,1.27,1.1,1.66,1.98,.44,1.12,.52,2.07,.45,3.23-.37,3.56-1.98,6.25-4.11,8.97-2.01,2.38-3.93,4.16-6.96,5.16-4.85,1.33-8.88-.93-12.4-4.42-.06-.06-.11-.12-.17-.18Z"/>
  <path class="cls-1" d="M24.34,20.06c1.05-2.6,2.41-4.34,4.74-6.04,1.49-1.02,2.76-1.6,4.53-2.09,2.01-.51,4.08-.57,6.15-.43,.25-.77,.91-1.64,2.02-2.32-2.39-.16-6.52-.08-8.84,.5-2.07,.58-3.58,1.27-5.33,2.46-2.75,2.02-4.36,4.06-5.6,7.13-.18,.48-.32,.94-.45,1.43-.45,1.8-.53,3.24-.32,5.09,.27,1.88,.77,3.26,1.74,4.93,1.11,1.77,2.25,2.93,3.97,4.19,3.84,2.65,8.82,3.86,13.52,4.05,2.59,11.28,8.47,26.57,20.31,28.12-1.67-.88-13.88-2.94-19.04-28.1,5.78-.1,10.78-1.8,13.59-6.87,1.58-3.25,1.71-6.12,1.38-9.63-.5-3.82-1.41-7.09-3.97-10.16-1-1.1-1.91-1.84-3.32-2.42-1.3-.48-2.35-.58-3.72-.27-1.44,.4-2.35,1.06-3.34,2.11-1.18,1.37-1.81,2.68-2.4,4.34-1.61,5.22-1.42,10.26-.83,15.62,.2,1.47,.49,3.21,.88,5.12-4.02-.27-8.37-1.39-11.64-3.69-1.44-1.07-2.39-2.04-3.31-3.54-.8-1.38-1.19-2.53-1.41-4.08-.16-1.55-.08-2.75,.3-4.25,.11-.41,.24-.8,.39-1.21h0Zm16.99,16.83c-.3-1.68-.58-3.45-.81-5.32-.49-5.11-.64-10.04,1-15,.53-1.44,1.09-2.6,2.13-3.77,.74-.77,1.42-1.28,2.49-1.56,.96-.21,1.67-.12,2.58,.23,1.1,.48,1.83,1.1,2.6,1.97,2.25,2.78,3.02,5.82,3.44,9.25,.27,3.11,.16,5.72-1.28,8.57-2.49,4.37-6.93,5.62-11.9,5.64-.08,0-.16,0-.24,0Z"/>
  <path class="cls-1" d="M3.53,64.26c-1.1-2.58-1.36-4.77-.92-7.62,.34-1.77,.83-3.08,1.72-4.68,1.06-1.78,2.48-3.29,4.05-4.65-.37-.72-.52-1.81-.21-3.07-1.8,1.58-4.67,4.56-5.89,6.61-1.06,1.88-1.63,3.42-2.03,5.51-.52,3.37-.21,5.96,1.08,9,.21,.46,.44,.89,.69,1.33,.96,1.59,1.92,2.67,3.37,3.83,1.52,1.14,2.85,1.76,4.72,2.25,2.04,.46,3.66,.48,5.77,.15,4.59-.85,8.96-3.5,12.42-6.69,9.8,6.14,24.78,12.8,34.24,5.53-1.8,.56-11.89,7.74-33.33-6.4,4.01-4.15,6.35-8.9,4.75-14.47-1.18-3.41-3.11-5.53-5.84-7.78-3.06-2.35-6.01-4.02-10-4.38-1.48-.07-2.65,.05-4.06,.63-1.26,.58-2.07,1.25-2.82,2.44-.73,1.3-.92,2.41-.87,3.85,.13,1.8,.61,3.17,1.38,4.76,2.55,4.83,6.25,8.26,10.46,11.63,1.19,.9,2.62,1.92,4.24,3-3.04,2.65-6.9,4.93-10.83,5.62-1.77,.26-3.13,.24-4.84-.16-1.54-.42-2.63-.94-3.88-1.89-1.21-.98-2-1.89-2.79-3.22-.21-.37-.4-.74-.58-1.13h0Zm23.91-.11c-1.4-.97-2.84-2.03-4.34-3.19-3.97-3.27-7.55-6.65-9.9-11.31-.64-1.39-1.07-2.61-1.16-4.17-.02-1.07,.1-1.91,.66-2.87,.53-.82,1.1-1.27,1.98-1.66,1.12-.44,2.07-.51,3.23-.45,3.56,.37,6.25,1.98,8.97,4.11,2.38,2.01,4.16,3.93,5.16,6.96,1.33,4.85-.93,8.88-4.42,12.4-.06,.06-.12,.11-.18,.17Z"/>
</svg>